<?xml version="1.0" standalone="no"?><svg xmlns="http://www.w3.org/2000/svg" viewBox="0 0 1440 320"><path fill="#313450" fill-opacity="1" d="M0,224L30,197.3C60,171,120,117,180,106.7C240,96,300,128,360,138.7C420,149,480,139,540,160C600,181,660,235,720,240C780,245,840,203,900,176C960,149,1020,139,1080,154.7C1140,171,1200,213,1260,224C1320,235,1380,213,1410,202.7L1440,192L1440,0L1410,0C1380,0,1320,0,1260,0C1200,0,1140,0,1080,0C1020,0,960,0,900,0C840,0,780,0,720,0C660,0,600,0,540,0C480,0,420,0,360,0C300,0,240,0,180,0C120,0,60,0,30,0L0,0Z"></path></svg>